# xmcd CD database file
# Copyright (C) 1996 Ti Kan
#
# Track frame offsets:
# 	150
# 	14665
# 	24112
# 	36247
# 	46215
# 	59750
# 	71945
# 	85100
# 	97920
# 	109505
#
# Disc length: 1628 seconds
#
# Revision: 1
# Processed by: cddbd v1.4b41PL1 Copyright (c) Steve Scherf et al.
# Submitted via: DiscPlay 3.2
#
DISCID=7d065a0a
DTITLE=George Strait - Right Or Wrong
DYEAR=1900
DGENRE=
TTITLE0=You Look So Good In Love
TTITLE1=Right Or Wrong
TTITLE2=A Little Heaven's Rubbing Off On Me
TTITLE3=80 Proof Bottle Of Tear Stopper
TTITLE4=Every Time It Rains
TTITLE5=You're The Cloud I'm On
TTITLE6=Let's Fall To Pieces Together
TTITLE7=I'm Satisfied With You
TTITLE8=Our Paths May Never Cross
TTITLE9=Fifteen Year Going Up
EXTD=
EXTT0=
EXTT1=
EXTT2=
EXTT3=
EXTT4=
EXTT5=
EXTT6=
EXTT7=
EXTT8=
EXTT9=
PLAYORDER=
